<svg width="400" height="396" viewBox="0 0 400 396" fill="none" xmlns="http://www.w3.org/2000/svg">
<g clip-path="url(#clip0)">
<rect width="400" height="396" fill="white" fill-opacity="0.29"/>
<g filter="url(#filter0_d)">
<path d="M145 173C145 161.954 153.954 153 165 153H242C253.046 153 262 161.954 262 173V280H145V173Z" fill="#EBE1DC"/>
<path d="M162 184C162 172.954 170.954 164 182 164H251C257.075 164 262 168.925 262 175V282H162V184Z" fill="#FFF5F5"/>
<path d="M176 145C176 142.239 178.239 140 181 140H226C228.761 140 231 142.239 231 145V148C231 150.761 228.761 153 226 153H181C178.239 153 176 150.761 176 148V145Z" fill="#6A6FEF"/>
<path d="M189 145C189 142.239 191.239 140 194 140H226C228.761 140 231 142.239 231 145V148C231 150.761 228.761 153 226 153H194C191.239 153 189 150.761 189 148V145Z" fill="#8388F2"/>
<path d="M159 41H251V127H159V41Z" fill="#B3B6F5"/>
<path d="M170 41H251V127H170V41Z" fill="#C5C7F1"/>
<path d="M145 33C145 30.2386 147.239 28 150 28H257C259.761 28 262 30.2386 262 33V36C262 38.7614 259.761 41 257 41H150C147.239 41 145 38.7614 145 36V33Z" fill="#6A6FEF"/>
<path d="M145 132C145 129.239 147.239 127 150 127H257C259.761 127 262 129.239 262 132V135C262 137.761 259.761 140 257 140H150C147.239 140 145 137.761 145 135V132Z" fill="#6A6FEF"/>
<path d="M176 132C176 129.239 178.239 127 181 127H257C259.761 127 262 129.239 262 132V135C262 137.761 259.761 140 257 140H181C178.239 140 176 137.761 176 135V132Z" fill="#8388F2"/>
<path d="M145 82C145 79.2386 147.239 77 150 77H257C259.761 77 262 79.2386 262 82V85C262 87.7614 259.761 90 257 90H150C147.239 90 145 87.7614 145 85V82Z" fill="#6A6FEF"/>
<path d="M176 82C176 79.2386 178.239 77 181 77H257C259.761 77 262 79.2386 262 82V85C262 87.7614 259.761 90 257 90H181C178.239 90 176 87.7614 176 85V82Z" fill="#8388F2"/>
<path d="M176 33C176 30.2386 178.239 28 181 28H257C259.761 28 262 30.2386 262 33V36C262 38.7614 259.761 41 257 41H181C178.239 41 176 38.7614 176 36V33Z" fill="#8388F2"/>
<path d="M179 208C179 205.239 181.239 203 184 203H194C196.761 203 199 205.239 199 208V211C199 213.761 196.761 216 194 216H184C181.239 216 179 213.761 179 211V208Z" fill="#6A6FEF"/>
<path d="M182 208C182 205.239 184.239 203 187 203H194C196.761 203 199 205.239 199 208V211C199 213.761 196.761 216 194 216H187C184.239 216 182 213.761 182 211V208Z" fill="#9195F6"/>
<path d="M182 208C182 205.239 184.239 203 187 203H194C196.761 203 199 205.239 199 208V211C199 213.761 196.761 216 194 216H187C184.239 216 182 213.761 182 211V208Z" fill="#9195F6"/>
<path d="M189.5 228.987C185.833 228.987 184.306 220.162 184 216H195C194.694 220.495 193.167 229.387 189.5 228.987Z" fill="#C4C4C4"/>
<path d="M190.722 227.988C187.87 227.988 186.682 219.842 186.444 216H195C194.762 220.15 193.574 228.357 190.722 227.988Z" fill="#E4E3E3"/>
<path d="M217 208C217 205.239 219.239 203 222 203H232C234.761 203 237 205.239 237 208V211C237 213.761 234.761 216 232 216H222C219.239 216 217 213.761 217 211V208Z" fill="#EB5353"/>
<path d="M220 208C220 205.239 222.239 203 225 203H232C234.761 203 237 205.239 237 208V211C237 213.761 234.761 216 232 216H225C222.239 216 220 213.761 220 211V208Z" fill="#9195F6"/>
<path d="M220 208C220 205.239 222.239 203 225 203H232C234.761 203 237 205.239 237 208V211C237 213.761 234.761 216 232 216H225C222.239 216 220 213.761 220 211V208Z" fill="#F37A7A"/>
<path d="M227.5 228.987C223.833 228.987 222.306 220.162 222 216H233C232.694 220.495 231.167 229.387 227.5 228.987Z" fill="#C4C4C4"/>
<path d="M228.722 227.988C225.87 227.988 224.682 219.842 224.444 216H233C232.762 220.15 231.574 228.357 228.722 227.988Z" fill="#E4E3E3"/>
</g>
<path d="M102.018 226.463C64.747 198.458 17.7146 214.794 -1.14268 226.463L-13.8991 229.463L-20 439.5L450.878 442C451.248 366.654 450.989 218.662 446.996 229.463C442.004 242.966 395.97 267.97 377.113 265.97C358.256 263.969 345.499 235.464 305.566 222.962C265.633 210.46 223.481 256.968 190.758 261.969C158.035 266.97 148.607 261.469 102.018 226.463Z" fill="#F7D317"/>
<rect x="77" y="293" width="257" height="68" fill="#C4C4C4"/>
<path d="M107.312 301.406V352H94.1562V301.406H107.312ZM139.094 301.406V311.531H131.281V352H118.125V311.531H110.344V301.406H139.094ZM157.188 326.906V335.625H140.594V326.906H157.188ZM160.969 301.375H174.156L174.219 322.75C176.698 322.688 177.979 321.312 178.062 318.625L178.312 308.75C178.396 305.104 179.104 302.646 180.438 301.375H192.594C191.406 302.604 190.823 305.146 190.844 309L190.906 317.688C190.948 322.938 187.99 325.927 182.031 326.656C187.99 327.385 190.948 330.417 190.906 335.75L190.844 343.812C190.823 347.646 191.406 350.375 192.594 352H180.438C179.021 350.729 178.312 348.271 178.312 344.625V334.75C178.312 333.5 177.927 332.5 177.156 331.75C176.406 330.979 175.427 330.583 174.219 330.562L174.156 352H160.969V301.375ZM221.344 301.375L217.75 334.906C217.188 340.198 216.583 343.917 215.938 346.062C215.292 348.188 214.042 349.708 212.188 350.625C210.333 351.542 207.281 352 203.031 352H195.344V345.469H196.125C197.854 345.469 198.917 345.333 199.312 345.062C199.729 344.771 199.938 344.333 199.938 343.75C199.938 343.708 199.688 342.281 199.188 339.469L192.281 301.375H203.719L207.875 332.875L209.875 301.375H221.344ZM256.094 352H242.906V311.5H239.062V340.156C239.062 343.927 238.573 346.635 237.594 348.281C236.635 349.927 235.167 350.958 233.188 351.375C231.208 351.792 228.052 352 223.719 352H221.656V343.281C223.26 343.281 224.365 343.083 224.969 342.688C225.573 342.292 225.875 340.938 225.875 338.625V301.375H256.094V352ZM261.344 301.406H283.281V311.531H274.5V321.125H282.719V330.75H274.5V341.875H284.156V352H261.344V301.406ZM287.969 301.406H301.219C304.802 301.406 307.552 301.688 309.469 302.25C311.406 302.812 312.854 303.625 313.812 304.688C314.792 305.75 315.448 307.042 315.781 308.562C316.135 310.062 316.312 312.396 316.312 315.562V319.969C316.312 323.198 315.979 325.552 315.312 327.031C314.646 328.51 313.417 329.646 311.625 330.438C309.854 331.229 307.531 331.625 304.656 331.625H301.125V352H287.969V301.406ZM301.125 310.062V322.938C301.5 322.958 301.823 322.969 302.094 322.969C303.302 322.969 304.135 322.677 304.594 322.094C305.073 321.49 305.312 320.25 305.312 318.375V314.219C305.312 312.49 305.042 311.365 304.5 310.844C303.958 310.323 302.833 310.062 301.125 310.062Z" fill="#4B4545"/>
</g>
<defs>
<filter id="filter0_d" x="141" y="28" width="125" height="262" filterUnits="userSpaceOnUse" color-interpolation-filters="sRGB">
<feFlood flood-opacity="0" result="BackgroundImageFix"/>
<feColorMatrix in="SourceAlpha" type="matrix" values="0 0 0 0 0 0 0 0 0 0 0 0 0 0 0 0 0 0 127 0"/>
<feOffset dy="4"/>
<feGaussianBlur stdDeviation="2"/>
<feColorMatrix type="matrix" values="0 0 0 0 0 0 0 0 0 0 0 0 0 0 0 0 0 0 0.25 0"/>
<feBlend mode="normal" in2="BackgroundImageFix" result="effect1_dropShadow"/>
<feBlend mode="normal" in="SourceGraphic" in2="effect1_dropShadow" result="shape"/>
</filter>
<clipPath id="clip0">
<rect width="400" height="396" fill="white"/>
</clipPath>
</defs>
</svg>
